PathFileType	3	(X/Y/Z)	D:\Vicon Database\Healthy Subjects\S0040\Jan. 30, 2020\Force Plate Walk 5.trc
DataRate	CameraRate	NumFrames	NumMarkers	Units	OrigDataRate	OrigDataStartFrame	OrigNumFrames
100.0	100.0	4	53	mm	100.0	228	326	
Frame#	Time	right_foot_cluster2			right_foot_cluster3			sternum_cluster1			sternum_cluster2			sternum_cluster3			left_asis			right_asis			left_psis			right_psis			sacrum_cluster1			sacrum_cluster2			sacrum_cluster3			left_lat_femoral_epicondyle			left_anterior_thigh15			left_anterior_thigh25			left_anterior_thigh50			left_lateral_thigh25			left_lateral_thigh50			left_thigh_cluster1			left_thigh_cluster2			left_thigh_cluster3			left_fibular_head			left_tibial_tuberosity			left_anterior_shank30			left_lateral_malleolus			left_shank_cluster1			left_shank_cluster2			left_shank_cluster3			left_heel			left_metatarsal2			left_foot_cluster1			left_foot_cluster2			left_foot_cluster3			right_lat_femoral_epicondyle			right_anterior_thigh15			right_anterior_thigh25			right_anterior_thigh50			right_lateral_thigh25			right_lateral_thigh50			right_thigh_cluster1			right_thigh_cluster2			right_thigh_cluster3			right_fibular_head			right_tibial_tuberosity			right_lateral_distal_shank			right_anterior_shank30			right_lateral_malleolus			right_shank_cluster1			right_shank_cluster2			right_shank_cluster3			right_heel			right_metatarsal2			right_foot_cluster1			
		X1	Y1	Z1	X2	Y2	Z2	X3	Y3	Z3	X4	Y4	Z4	X5	Y5	Z5	X6	Y6	Z6	X7	Y7	Z7	X8	Y8	Z8	X9	Y9	Z9	X10	Y10	Z10	X11	Y11	Z11	X12	Y12	Z12	X13	Y13	Z13	X14	Y14	Z14	X15	Y15	Z15	X16	Y16	Z16	X17	Y17	Z17	X18	Y18	Z18	X19	Y19	Z19	X20	Y20	Z20	X21	Y21	Z21	X22	Y22	Z22	X23	Y23	Z23	X24	Y24	Z24	X25	Y25	Z25	X26	Y26	Z26	X27	Y27	Z27	X28	Y28	Z28	X29	Y29	Z29	X30	Y30	Z30	X31	Y31	Z31	X32	Y32	Z32	X33	Y33	Z33	X34	Y34	Z34	X35	Y35	Z35	X36	Y36	Z36	X37	Y37	Z37	X38	Y38	Z38	X39	Y39	Z39	X40	Y40	Z40	X41	Y41	Z41	X42	Y42	Z42	X43	Y43	Z43	X44	Y44	Z44	X45	Y45	Z45	X46	Y46	Z46	X47	Y47	Z47	X48	Y48	Z48	X49	Y49	Z49	X50	Y50	Z50	X51	Y51	Z51	X52	Y52	Z52	X53	Y53	Z53	
228	2.27	3708.5537	106.31291	-176.18379	3708.5032	109.29682	-214.25919	3653.8518	1454.7693	-130.38252	3643.3242	1426.1932	-122.16715	3643.5198	1429.2794	-160.23016	3696.2117	1071.9891	-15.396093	3686.8887	1081.7649	-263.27975																3665.3342	553.08899	9.8263254	3577.9519	639.15326	-32.598362	3586.5779	729.67456	-21.286345	3629.5178	863.7254	-11.525274	3698.9841	695.88934	26.954494	3729.0952	841.17932	50.500996	3720.3706	796.24896	56.673958	3717.6599	765.70117	53.335716	3684.1499	782.625	59.545357	3680.7915	484.74103	20.228893	3634.5112	449.202	-33.494995	3815.177	267.41882	-43.112206	3927.2268	210.27689	-12.599626	3671.3586	402.487	-61.155376	3686.342	379.08502	-52.199211	3695.5005	387.25583	-88.679054	4005.3049	228.04138	-56.846989	3834.4131	92.617218	-39.355507	3849.3884	167.8786	-34.653378	3843.7317	138.37178	-24.371092	3833.6931	140.67795	-61.155895	3748.5657	536.72845	-267.8544	3664.4563	625.07404	-212.49757	3649.5735	703.72064	-214.42854	3647.9333	833.1236	-227.48825	3745.76	696.11951	-295.94257	3744.561	843.15289	-325.78851	3754.2019	789.03882	-331.63107	3741.1794	764.03864	-326.93045	3781.259	762.92529	-324.13983	3764.2466	469.30505	-269.23553	3709.9824	457.42462	-223.68721	3806.1775	202.61423	-245.08392	3759.3882	212.93269	-199.71292	3820.1458	100.88786	-226.62479	3728.4187	394.54102	-166.63272	3737.1582	367.65469	-158.99326	3714.5322	361.99881	-186.99451	3894.7742	66.780876	-190.92331	3675.2979	73.194748	-187.41563	3733.1323	119.01486	-185.71172
229	2.28	3709.0632	105.94463	-176.34343	3708.3423	109.22474	-214.25833	3643.5579	1455.8052	-130.91119	3632.9556	1427.0049	-122.57928	3632.9375	1429.7235	-160.66022	3686.4363	1073.3527	-16.167566	3675.7549	1081.9791	-263.19693																3646.6765	555.987	8.7715769	3560.9775	644.36554	-33.075901	3571.7566	734.62012	-21.54113	3617.6438	867.46027	-12.067308	3683.3264	698.71149	27.140713	3716.645	843.46692	50.856995	3706.7661	798.2124	57.457527	3703.2922	767.88873	53.436886	3669.9839	784.82355	59.341568	3660.7017	487.58813	19.221764	3611.3359	453.37582	-33.97908	3785.2603	264.46896	-44.035706	3895.6479	202.55225	-14.631676	3647.3098	404.7283	-61.674473	3661.0073	380.9541	-52.476807	3670.7314	388.1922	-89.211655	3974.3982	215.29443	-59.47023	3796.0967	90.105171	-39.897522	3815.7327	164.10725	-36.055241	3808.2747	136.00528	-25.22489	3798.106	138.32732	-62.261368	3745.958	536.52734	-267.93121	3660.1755	624.3443	-212.5688	3644.3481	702.57758	-214.42278	3640.396	831.67139	-227.26945	3740.5732	695.9599	-295.78021	3736.8916	843.34906	-326.07632	3747.6589	789.08582	-331.8111	3734.7644	764.2312	-326.83145	3774.8196	763.9549	-324.2225	3762.5537	469.51016	-268.91006	3708.4387	457.30978	-223.36998	3805.5049	202.88707	-245.07762	3758.8689	213.03523	-199.57138	3819.9819	101.05092	-226.27153	3727.0725	394.71603	-166.48154	3736.0352	367.81119	-158.80202	3713.3835	362.16461	-186.91496	3894.7429	67.179588	-190.8445	3675.5901	72.964272	-187.84247	3733.0903	119.17525	-185.53488
230	2.29	3708.8325	105.8447	-176.1226	3708.1509	109.17406	-214.23694	3633.2839	1456.0316	-131.43088	3622.9045	1427.4935	-122.66823	3622.4536	1430.3359	-160.94748	3676.5959	1074.2734	-16.616169	3665.3254	1082.4523	-263.418																3628.6572	558.9704	8.2726974	3544.5042	649.47455	-33.462891	3557.0593	739.63635	-21.917788	3605.9392	870.8382	-12.452931	3667.6584	701.27722	27.643179	3704.1653	845.59186	51.279037	3693.6262	800.03711	57.452896	3689.2126	770.04797	54.305634	3656.3057	787.98871	59.931709	3640.9961	489.87265	18.273905	3589.4902	456.87387	-33.961979	3755.0437	261.04483	-44.980534	3863.1677	194.26378	-16.418123	3622.8623	407.14551	-62.355675	3636.0269	382.7594	-52.875755	3645.7373	389.42218	-89.759941	3942.3923	202.36603	-62.149673	3756.9541	88.140228	-40.37978	3780.9668	160.55833	-36.897491	3772.0024	132.61852	-26.321289	3761.4739	135.24426	-62.894814	3743.7349	536.58197	-267.92502	3656.9229	622.78528	-212.23323	3639.175	701.2627	-214.1313	3632.7407	830.39081	-227.2272	3735.2627	695.6438	-295.83722	3729.1445	843.24316	-325.92932	3741.4128	789.14655	-331.34033	3728.9661	764.06549	-326.08881	3768.1055	764.48822	-324.19751	3760.6248	469.56192	-268.22034	3707.0164	457.09326	-223.12807	3804.5559	203.04512	-245.134	3758.2146	213.23962	-199.4086	3819.8733	101.21796	-226.19641	3725.9617	394.9057	-166.1474	3734.7773	367.74658	-158.56032	3712.2693	362.17593	-186.77251	3894.6333	67.363121	-190.79181	3675.1162	72.73999	-187.31709	3732.7275	119.07413	-185.48589
231	2.3	3708.5073	105.86916	-176.12863	3707.9749	109.18855	-213.93265	3622.9529	1456.24	-131.75841	3612.6409	1427.71	-123.31554	3612.157	1430.5959	-161.35326	3666.7227	1074.9331	-17.235361	3655.3401	1082.0775	-264.07501																3611.1729	561.6983	7.5899634	3528.5427	654.29956	-33.923561	3542.9109	744.22131	-22.398315	3594.2786	874.02771	-13.02219	3652.0046	703.57983	28.147755	3691.5718	847.30811	51.839481	3679.4026	802.34259	58.522991	3674.9546	772.16296	54.983147	3642.6592	790.57526	60.512161	3621.9541	492.10477	17.290733	3568.5642	461.12018	-33.82999	3725.2498	257.46439	-45.743793	3829.9016	185.7619	-17.915892	3599.1211	409.58374	-62.430229	3611.1892	384.77206	-52.845474	3620.8228	390.66272	-89.804436	3909.2339	189.0054	-64.311676	3717.95	85.538589	-40.946941	3746.3123	156.58588	-37.868294	3735.6689	130.06326	-26.830973	3724.7378	132.96626	-63.687881	3741.8914	536.99213	-266.93726	3653.4875	621.67676	-212.05132	3634.022	699.62659	-213.7325	3625.0613	829.00507	-227.06876	3730.1458	695.76239	-295.79843	3721.3591	842.80499	-325.83569	3734.0591	788.9353	-331.81021	3721.676	763.66736	-327.06546	3761.4155	764.71338	-324.1098	3759.3169	469.94797	-268.48389	3705.4797	457.06851	-222.94196	3803.8999	203.27182	-244.8882	3757.5947	213.48019	-199.2023	3820.2244	101.26155	-226.37366	3724.6445	394.94989	-165.72853	3733.2117	367.75644	-158.38068	3711.1155	362.17987	-186.57942	3894.5989	67.544716	-190.74408	3675.041	72.567673	-187.23779	3732.6545	118.91733	-185.42322
